<svg xmlns="http://www.w3.org/2000/svg" xml:space="preserve" viewBox="0 0 512 512" preserveAspectRatio="xMidYMid meet">
  <path style="fill: #60a5fa" d="M511.98 463.982 469.482 47.998H42.748L0 463.982h223.991l31.999-127.995 31.999 127.995z" />
  <path style="fill: #3b82f6" d="M287.989 463.982H511.98l-3.25-31.998H279.99zM231.991 431.984H3.249L0 463.982h223.991zM39.498 79.997l-2.25 21.374h122.246c-24.499 15.875-66.498 34.624-125.246 29.625l-2.25 21.249c7.5.625 14.5.875 21.499.875 45.999 0 80.748-13.25 103.247-25.374 17.999-9.75 30.499-20.125 37.249-26.375h124.246c6.749 6.25 19.249 16.625 37.248 26.375 22.249 12.125 57.249 25.374 103.246 25.374 7 0 14-.25 21.5-.875l-2.25-21.249c-40.748 3.5-78.247-3.75-111.496-21.5-5-2.75-9.5-5.5-13.749-8.125h122.245l-2.25-21.374h-77.997V47.998h-21.25v31.999H138.744V47.998h-21.249v31.999H39.498z" />
  <path style="fill: #f1f5f9" d="M245.49 47.998v138.62c0 5.875 4.75 10.75 10.5 10.75 6 0 10.75-4.875 10.75-10.75V47.998h-21.25z" />
</svg>
